<svg width="481" height="104" viewBox="0 0 481 104" fill="none" xmlns="http://www.w3.org/2000/svg">
<path d="M84.4171 23.472C84.4171 28.7627 82.9664 33.4987 80.0651 37.68C77.1637 41.776 73.1957 45.1893 68.1611 47.92C71.4037 50.1387 73.9637 52.8693 75.8411 56.112C77.8037 59.2693 78.7851 62.768 78.7851 66.608C78.7851 71.216 77.3771 75.7813 74.5611 80.304C71.8304 84.7413 68.1611 88.7093 63.5531 92.208C58.9451 95.6213 53.6971 98.3947 47.8091 100.528C41.9211 102.661 35.9051 103.728 29.7611 103.728C23.1051 103.728 17.2597 102.448 12.2251 99.888C7.27574 97.4133 3.39307 93.872 0.577074 89.264C1.43041 86.704 2.53974 83.5467 3.90508 79.792C5.35574 75.952 6.93441 71.9413 8.64108 67.76C10.3477 63.4933 12.0544 59.2693 13.7611 55.088C15.5531 50.9067 17.2171 47.152 18.7531 43.824C21.9957 36.5707 24.8971 30.5547 27.4571 25.776C30.0171 20.9973 32.3637 17.2 34.4971 14.384C29.8037 15.8347 25.5371 17.4987 21.6971 19.376C17.8571 21.168 15.0411 22.9173 13.2491 24.624C12.4811 24.112 11.6704 23.344 10.8171 22.32C10.0491 21.296 9.28108 20.1867 8.51307 18.992C7.83041 17.712 7.23307 16.432 6.72108 15.152C6.29441 13.872 6.03841 12.72 5.95307 11.696C8.17174 10.16 11.0304 8.70933 14.5291 7.34399C18.1131 5.89333 21.9957 4.656 26.1771 3.632C30.3584 2.60799 34.6251 1.79733 38.9771 1.2C43.4144 0.602661 47.6384 0.303993 51.6491 0.303993C61.8891 0.303993 69.9104 2.35199 75.7131 6.448C81.5157 10.544 84.4171 16.2187 84.4171 23.472ZM35.6491 54.064C34.0277 53.296 32.5344 52.144 31.1691 50.608C29.2064 54.96 27.3291 59.2267 25.5371 63.408C23.8304 67.5893 22.2944 71.472 20.9291 75.056C19.5637 78.64 18.4544 81.7547 17.6011 84.4C16.7477 87.0453 16.2784 88.9653 16.1931 90.16C17.3877 90.8427 18.7957 91.3547 20.4171 91.696C22.1237 92.0373 24.2144 92.208 26.6891 92.208C32.4917 92.208 38.0384 91.3973 43.3291 89.776C48.6197 88.1547 53.2704 85.9787 57.2811 83.248C61.2917 80.432 64.4917 77.232 66.8811 73.648C69.2704 70.064 70.4651 66.3093 70.4651 62.384C70.4651 56.752 68.0331 52.6987 63.1691 50.224C56.5131 52.9547 49.0037 54.32 40.6411 54.32C39.4464 54.32 38.5077 54.32 37.8251 54.32C37.2277 54.32 36.5024 54.2347 35.6491 54.064ZM60.4811 9.64799C58.6891 9.64799 56.7691 9.776 54.7211 10.032C52.7584 10.2027 50.6677 10.5013 48.4491 10.928C48.7904 11.2693 49.0464 11.6533 49.2171 12.08C49.4731 12.4213 49.6864 12.8053 49.8571 13.232C49.0891 14.256 48.1504 15.7493 47.0411 17.712C45.9317 19.6747 44.6944 21.9787 43.3291 24.624C41.9637 27.184 40.5131 30.0427 38.9771 33.2C37.5264 36.3573 36.0331 39.6 34.4971 42.928C35.9477 42.5867 37.6971 42.3307 39.7451 42.16C41.8784 41.904 43.9691 41.776 46.0171 41.776C47.1264 41.776 48.1931 41.8187 49.2171 41.904C50.3264 41.9893 51.3931 42.1173 52.4171 42.288C56.5131 41.6053 60.1824 40.624 63.4251 39.344C66.7531 37.9787 69.6117 36.4427 72.0011 34.736C74.3904 32.944 76.2251 30.9813 77.5051 28.848C78.7851 26.7147 79.4251 24.4533 79.4251 22.064C79.4251 17.968 77.8037 14.896 74.5611 12.848C71.3184 10.7147 66.6251 9.64799 60.4811 9.64799ZM214.03 97.41C213.663 94.4033 213.37 91.14 213.15 87.62C213.003 84.0267 212.93 80.69 212.93 77.61C212.93 72.6967 213.076 68.0033 213.37 63.53C213.736 58.9833 214.14 54.2533 214.58 49.34C215.093 44.3533 215.643 38.9633 216.23 33.17C216.816 27.3033 217.33 20.5567 217.77 12.93C218.723 12.93 220.08 13.2233 221.84 13.81C223.673 14.3233 225.506 14.9467 227.34 15.68C229.173 16.4133 230.786 17.1833 232.18 17.99C233.573 18.7233 234.38 19.3467 234.6 19.86C233.353 22.72 232.216 26.4967 231.19 31.19C230.236 35.81 229.43 40.87 228.77 46.37C228.11 51.87 227.596 57.5167 227.23 63.31C226.863 69.1033 226.68 74.53 226.68 79.59C226.68 81.9367 226.716 84.2467 226.79 86.52C226.863 88.7933 226.973 90.8833 227.12 92.79C228.66 90.5167 230.42 87.29 232.4 83.11C234.453 78.8567 236.543 74.1267 238.67 68.92C240.87 63.7133 243.033 58.2867 245.16 52.64C247.36 46.92 249.376 41.4933 251.21 36.36C253.043 31.1533 254.583 26.4967 255.83 22.39C257.15 18.21 258.066 15.0567 258.58 12.93C259.533 12.93 260.926 13.2233 262.76 13.81C264.666 14.3233 266.5 14.9467 268.26 15.68C270.093 16.4133 271.706 17.1833 273.1 17.99C274.493 18.7233 275.263 19.3467 275.41 19.86C274.163 22.72 273.026 26.4967 272 31.19C271.046 35.81 270.24 40.87 269.58 46.37C268.92 51.87 268.406 57.5167 268.04 63.31C267.673 69.1033 267.49 74.53 267.49 79.59C267.49 81.7167 267.49 83.8433 267.49 85.97C267.563 88.0233 267.673 89.8933 267.82 91.58C270.166 85.4933 272.586 79.48 275.08 73.54C277.646 67.5267 280.176 61.8067 282.67 56.38C285.163 50.88 287.583 45.7833 289.93 41.09C292.276 36.3233 294.44 32.1067 296.42 28.44C298.4 24.7 300.123 21.62 301.59 19.2C303.056 16.78 304.193 15.1667 305 14.36C306.686 14.58 308.41 15.2033 310.17 16.23C312.003 17.1833 313.616 18.43 315.01 19.97C312.883 21.6567 310.463 24.4433 307.75 28.33C305.036 32.1433 302.25 36.58 299.39 41.64C296.53 46.7 293.633 52.09 290.7 57.81C287.84 63.53 285.163 69.1033 282.67 74.53C280.176 79.9567 277.94 85.0167 275.96 89.71C274.053 94.4033 272.586 98.18 271.56 101.04C269.653 101.92 267.783 102.36 265.95 102.36C263.603 102.067 261.366 101.48 259.24 100.6C257.186 99.72 255.72 98.6567 254.84 97.41C254.62 96.2367 254.436 94.88 254.29 93.34C254.143 91.7267 254.033 90.15 253.96 88.61C253.886 87.07 253.813 85.6033 253.74 84.21C253.74 82.7433 253.74 81.4967 253.74 80.47C253.74 73.9433 253.996 67.3067 254.51 60.56C255.023 53.74 255.646 46.4433 256.38 38.67C254.693 43.6567 252.823 49.01 250.77 54.73C248.716 60.45 246.553 66.1333 244.28 71.78C242.08 77.3533 239.806 82.7067 237.46 87.84C235.186 92.9 232.95 97.3 230.75 101.04C228.843 101.92 226.973 102.36 225.14 102.36C222.793 102.067 220.556 101.48 218.43 100.6C216.376 99.72 214.91 98.6567 214.03 97.41Z" fill="#CC0000"/>
<path d="M83.8455 44.5859C85.7075 44.944 87.3188 45.2305 88.6795 45.4453C90.1118 45.5885 91.3292 45.7318 92.3318 45.875C93.4777 46.0182 94.4803 46.1257 95.3397 46.1973C96.199 46.2689 97.2016 46.3405 98.3475 46.4121C100.281 46.4837 103.002 46.4837 106.512 46.4121C104.435 46.2689 102.788 46.806 101.57 48.0234C100.424 49.1693 99.5649 50.4941 98.992 51.998C98.2759 53.7884 97.882 55.8652 97.8104 58.2285C97.6671 61.3796 97.7387 64.2441 98.0252 66.8223C98.3833 69.3288 98.992 71.4772 99.8514 73.2676C100.782 74.9863 102 76.2754 103.504 77.1348C105.008 77.9225 106.941 78.1374 109.304 77.7793C111.668 77.4212 113.458 76.5977 114.676 75.3086C115.965 73.9479 116.896 72.3008 117.469 70.3672C118.041 68.362 118.364 66.1061 118.435 63.5996C118.579 61.0931 118.686 58.4792 118.758 55.7578C118.758 53.0365 118.722 51.1029 118.65 49.957C118.65 48.7396 118.614 47.9518 118.543 47.5938C118.471 47.2357 118.364 47.0924 118.221 47.1641C118.077 47.1641 117.898 46.985 117.683 46.627C117.54 46.3405 117.325 46.054 117.039 45.7676C116.824 45.4811 116.538 45.1589 116.179 44.8008C115.821 44.3711 115.428 43.9414 114.998 43.5117C116.86 43.5833 118.507 43.6549 119.939 43.7266C121.443 43.7266 122.696 43.7624 123.699 43.834C124.845 43.9056 125.847 43.9772 126.707 44.0488C127.495 44.1204 128.533 44.2279 129.822 44.3711C130.896 44.5143 132.293 44.6576 134.012 44.8008C135.73 44.944 137.771 45.1589 140.135 45.4453C138.487 45.8034 137.163 46.3405 136.16 47.0566C135.157 47.7728 134.37 48.4889 133.797 49.2051C133.152 49.9928 132.687 50.8522 132.4 51.7832C132.185 53.0007 132.185 54.8626 132.4 57.3691C132.543 59.5892 132.902 62.6328 133.474 66.5C134.047 70.3672 134.943 75.4518 136.16 81.7539L127.674 86.8027L125.955 72.5156C123.878 76.0247 121.658 78.7461 119.295 80.6797C117.003 82.5417 114.855 83.9023 112.849 84.7617C110.486 85.7643 108.194 86.3372 105.974 86.4805C103.038 86.4805 100.496 86.3014 98.3475 85.9434C96.2706 85.5137 94.4803 84.9766 92.9764 84.332C91.4725 83.6875 90.255 82.9714 89.324 82.1836C88.4647 81.3242 87.8201 80.4648 87.3904 79.6055C86.3878 77.8151 85.8507 75.5234 85.7791 72.7305C85.7075 69.8659 85.8149 67.0371 86.1014 64.2441C86.3878 61.3796 86.7101 58.7656 87.0682 56.4023C87.4262 54.0391 87.5337 52.4277 87.3904 51.5684C87.2472 50.9238 87.0324 50.2077 86.7459 49.4199C86.4594 48.7754 86.1014 48.0592 85.6717 47.2715C85.242 46.4121 84.6333 45.5169 83.8455 44.5859ZM151.972 97.8672C153.405 96.8646 154.551 95.5397 155.41 93.8926C156.269 92.2454 156.914 90.6341 157.344 89.0586C157.845 87.1966 158.167 85.263 158.31 83.2578C158.31 82.0404 158.239 80.1068 158.096 77.457C157.952 75.237 157.737 72.1934 157.451 68.3262C157.165 64.3874 156.735 59.3027 156.162 53.0723C155.374 53.1439 154.694 53.2155 154.121 53.2871C153.548 53.2871 153.082 53.2871 152.724 53.2871H151.543C151.185 53.2871 150.755 53.3229 150.254 53.3945C149.824 53.4661 149.251 53.5736 148.535 53.7168C147.89 53.86 147.103 54.0391 146.172 54.2539C146.315 53.681 146.387 53.1081 146.387 52.5352C146.458 51.8906 146.53 51.3177 146.601 50.8164C146.673 50.2435 146.709 49.7064 146.709 49.2051V47.5938C146.709 47.0924 146.709 46.5553 146.709 45.9824C146.78 45.4095 146.852 44.8366 146.924 44.2637L155.41 44.4785C155.052 41.3991 154.909 38.6419 154.98 36.207C155.052 33.7005 155.159 31.5521 155.303 29.7617C155.517 27.6849 155.804 25.8587 156.162 24.2832C156.663 22.3496 157.344 20.5592 158.203 18.9121C159.062 17.265 160.244 15.8685 161.748 14.7227C163.252 13.5768 165.114 12.7174 167.334 12.1445C169.554 11.5 172.239 11.1777 175.39 11.1777C178.971 11.2493 181.8 11.7148 183.877 12.5742C185.954 13.362 187.493 14.4004 188.496 15.6895C189.498 16.9069 190.071 18.3034 190.215 19.8789C190.358 21.4544 190.322 22.9941 190.107 24.498C189.964 25.9303 189.713 27.2552 189.355 28.4727C189.069 29.6901 188.961 30.5853 189.033 31.1582C189.105 31.5879 189.284 32.1608 189.57 32.877C189.785 33.4499 190.107 34.166 190.537 35.0254C191.038 35.8848 191.754 36.8516 192.685 37.9258C191.54 37.7826 190.394 37.6751 189.248 37.6035C188.102 37.4603 187.028 37.3529 186.025 37.2812C184.879 37.2096 183.769 37.1738 182.695 37.1738C181.621 37.2454 180.511 37.3171 179.365 37.3887C178.362 37.5319 177.288 37.6751 176.142 37.8184C174.997 37.89 173.922 38.1048 172.92 38.4629C174.352 37.4603 175.462 36.4219 176.25 35.3477C177.038 34.2734 177.646 33.3066 178.076 32.4473C178.577 31.4447 178.9 30.4421 179.043 29.4395C179.114 28.222 179.043 26.8613 178.828 25.3574C178.685 23.7819 178.362 22.3496 177.861 21.0605C177.36 19.7715 176.751 18.7331 176.035 17.9453C175.319 17.0859 174.459 16.7637 173.457 16.9785C171.953 17.5514 170.556 18.9479 169.267 21.168C168.193 23.0299 167.155 25.8587 166.152 29.6543C165.15 33.3783 164.505 38.5703 164.219 45.2305C165.579 45.3737 166.832 45.4811 167.978 45.5527C169.196 45.5527 170.27 45.5885 171.201 45.6602C172.275 45.7318 173.278 45.7676 174.209 45.7676C175.14 45.7676 176.178 45.7318 177.324 45.6602C178.327 45.5885 179.508 45.5527 180.869 45.5527C182.23 45.4811 183.734 45.3737 185.381 45.2305L185.166 50.8164C183.877 50.9596 182.623 51.0671 181.406 51.1387C180.189 51.2103 179.114 51.2819 178.183 51.3535C177.109 51.4251 176.107 51.4967 175.176 51.5684C174.173 51.64 173.135 51.7116 172.06 51.7832C171.129 51.8548 170.055 51.9622 168.838 52.1055C167.692 52.2487 166.474 52.3919 165.185 52.5352C166.188 60.6276 167.047 67.1803 167.763 72.1934C168.551 77.1348 169.232 80.9661 169.804 83.6875C170.377 86.9102 170.879 89.2018 171.308 90.5625C171.738 91.7083 172.239 92.7109 172.812 93.5703C173.314 94.3581 173.922 95.11 174.638 95.8262C175.355 96.5423 176.178 97.0078 177.109 97.2227C174.818 96.8646 172.848 96.5781 171.201 96.3633C169.554 96.2201 168.157 96.1126 167.012 96.041C165.722 95.9694 164.612 95.9336 163.681 95.9336C162.822 96.0052 161.784 96.1126 160.566 96.2559C158.489 96.4707 155.625 97.0078 151.972 97.8672ZM308.851 50.4941C309.209 50.0645 309.424 49.2767 309.496 48.1309C309.639 46.9134 309.926 45.5527 310.355 44.0488C310.857 42.5449 311.68 40.9694 312.826 39.3223C313.972 37.6751 315.834 36.1354 318.412 34.7031C320.918 33.2708 323.353 32.4115 325.717 32.125C328.08 31.8385 330.336 31.946 332.484 32.4473C334.633 32.9486 336.638 33.7363 338.5 34.8105C340.433 35.8848 342.188 37.0664 343.763 38.3555C344.838 39.2148 345.697 40.4681 346.342 42.1152C346.986 43.6908 347.487 45.4811 347.846 47.4863C348.204 49.4915 348.454 51.6042 348.597 53.8242C348.812 55.9727 348.956 58.0853 349.027 60.1621C349.099 62.1673 349.135 64.0293 349.135 65.748C349.206 67.3952 349.349 68.7559 349.564 69.8301C349.851 71.4056 350.352 72.7663 351.068 73.9121C351.784 74.9863 352.572 75.9173 353.431 76.7051C354.291 77.4212 355.15 77.9941 356.01 78.4238C356.869 78.8535 357.621 79.1758 358.265 79.3906C358.695 79.6055 359.089 79.7487 359.447 79.8203C360.163 80.1068 360.665 80.1068 360.951 79.8203C360.521 80.8229 360.127 81.6823 359.769 82.3984C359.411 83.1146 359.125 83.7233 358.91 84.2246C358.624 84.7975 358.373 85.263 358.158 85.6211C357.943 86.0508 357.693 86.4447 357.406 86.8027C357.191 87.1608 356.905 87.5547 356.547 87.9844C356.189 88.4141 355.831 88.8796 355.472 89.3809C354.541 89.0228 353.646 88.5931 352.787 88.0918C351.999 87.5905 351.283 87.125 350.638 86.6953C349.851 86.194 349.135 85.6927 348.49 85.1914C347.846 84.6901 347.237 84.1172 346.664 83.4727C346.163 82.8997 345.625 82.291 345.053 81.6465C344.551 81.002 344.122 80.2858 343.763 79.498C343.334 80.429 342.295 81.7539 340.648 83.4727C339.073 85.1914 336.996 86.7669 334.418 88.1992C331.84 89.5599 328.832 90.5267 325.394 91.0996C322.028 91.6725 318.305 91.2786 314.222 89.918C312.432 89.3451 310.749 88.5215 309.174 87.4473C307.598 86.3014 306.237 84.9408 305.092 83.3652C304.017 81.7897 303.23 79.9993 302.728 77.9941C302.299 75.9173 302.334 73.6257 302.836 71.1191C303.337 68.6126 304.232 66.5 305.521 64.7812C306.81 63.0625 308.35 61.666 310.14 60.5918C311.931 59.5176 313.936 58.694 316.156 58.1211C318.376 57.5482 320.668 57.1543 323.031 56.9395C324.893 56.8678 326.755 56.9753 328.617 57.2617C330.193 57.5482 331.84 58.0853 333.558 58.873C335.277 59.5892 336.745 60.6992 337.963 62.2031C337.891 58.4076 337.748 55.3997 337.533 53.1797C337.39 50.888 337.247 49.1335 337.103 47.916C336.817 46.4837 336.566 45.4811 336.351 44.9082C335.993 44.4069 335.599 43.834 335.17 43.1895C334.812 42.5449 334.346 41.972 333.773 41.4707C333.2 40.8978 332.484 40.4323 331.625 40.0742C330.765 39.7161 329.763 39.5729 328.617 39.6445C327.4 39.7161 326.433 40.0384 325.717 40.6113C325 41.1842 324.428 41.8646 323.998 42.6523C323.64 43.3685 323.425 44.1562 323.353 45.0156C323.282 45.875 323.318 46.627 323.461 47.2715C323.604 47.7012 323.819 48.1667 324.105 48.668C324.392 49.0977 324.786 49.5632 325.287 50.0645C325.788 50.5658 326.469 50.9954 327.328 51.3535C325.681 51.5684 324.213 51.7474 322.924 51.8906C321.635 51.9622 320.525 52.0697 319.594 52.2129C318.519 52.3561 317.588 52.4635 316.801 52.5352C316.013 52.6068 315.082 52.75 314.008 52.9648C313.077 53.1081 311.931 53.2871 310.57 53.502C309.209 53.7168 307.634 54.0033 305.844 54.3613C306.273 53.86 306.667 53.3945 307.025 52.9648C307.383 52.4635 307.706 52.0339 307.992 51.6758C308.278 51.2461 308.565 50.8522 308.851 50.4941ZM324.965 63.2773C323.676 63.349 322.387 63.6712 321.097 64.2441C319.808 64.7454 318.663 65.4974 317.66 66.5C316.657 67.431 315.798 68.541 315.082 69.8301C314.437 71.0475 314.115 72.4082 314.115 73.9121C314.115 75.416 314.473 76.7409 315.189 77.8867C315.977 78.9609 316.98 79.8561 318.197 80.5723C319.486 81.2884 320.847 81.7181 322.279 81.8613C323.783 82.0046 325.251 81.8613 326.683 81.4316C328.044 80.9303 329.333 80.1426 330.551 79.0684C331.768 77.9225 332.806 76.7051 333.666 75.416C334.525 74.0553 335.134 72.7305 335.492 71.4414C335.85 70.0807 335.886 68.9707 335.599 68.1113C335.027 66.2493 333.737 64.9603 331.732 64.2441C329.727 63.4564 327.471 63.1341 324.965 63.2773ZM364.303 42.5449C365.663 42.6165 366.881 42.6523 367.955 42.6523C369.101 42.5807 370.068 42.5091 370.855 42.4375C371.786 42.3659 372.61 42.2943 373.326 42.2227C374.4 42.0794 375.51 41.9004 376.656 41.6855C377.659 41.5423 378.697 41.3633 379.771 41.1484C380.917 40.862 382.027 40.5397 383.101 40.1816C382.672 41.2559 382.314 42.1868 382.027 42.9746C381.741 43.7624 381.526 44.4427 381.383 45.0156C381.168 45.6602 381.06 46.1973 381.06 46.627C380.989 47.1283 380.953 47.737 380.953 48.4531C380.881 49.6706 380.881 51.64 380.953 54.3613C384.677 51.1387 387.792 48.6322 390.299 46.8418C392.877 45.0514 394.918 43.6549 396.422 42.6523C398.212 41.5065 399.609 40.7546 400.611 40.3965C403.261 39.9668 405.588 40.5755 407.594 42.2227C408.453 42.9388 409.277 43.9056 410.064 45.123C410.852 46.2689 411.532 47.8086 412.105 49.7422C412.678 51.6758 413.108 54.0033 413.394 56.7246C413.681 59.3743 413.717 62.5612 413.502 66.2852C411.998 66.4284 410.637 66.5716 409.42 66.7148C408.274 66.8581 407.307 66.9655 406.519 67.0371C405.588 67.1803 404.729 67.252 403.941 67.252L401.041 67.5742C400.038 67.7174 398.785 67.8607 397.281 68.0039C395.849 68.0755 394.094 68.2188 392.017 68.4336C395.025 65.9987 396.959 63.8861 397.818 62.0957C398.749 60.2337 399.143 58.694 399 57.4766C398.857 56.1159 398.212 54.9342 397.066 53.9316C395.706 53.1439 394.237 52.8574 392.662 53.0723C391.301 53.2155 389.726 53.8242 387.935 54.8984C386.145 55.9727 384.247 57.9779 382.242 60.9141C382.385 65.4974 382.528 69.293 382.672 72.3008C382.887 75.3086 383.066 77.7435 383.209 79.6055C383.424 81.7539 383.603 83.4368 383.746 84.6543C383.961 85.7285 384.39 86.8743 385.035 88.0918C385.536 89.0944 386.252 90.2044 387.183 91.4219C388.114 92.6393 389.332 93.8568 390.836 95.0742C387.685 94.931 385.107 94.931 383.101 95.0742C381.884 95.1458 380.81 95.2174 379.879 95.2891C378.876 95.4323 377.802 95.5755 376.656 95.7188C375.653 95.862 374.472 96.0052 373.111 96.1484C371.822 96.3633 370.39 96.5781 368.814 96.793C369.387 96.0052 369.853 95.0742 370.211 94C370.569 92.9974 370.855 92.0306 371.07 91.0996C371.357 90.0254 371.571 88.9154 371.715 87.7695C371.786 86.7669 371.822 85.263 371.822 83.2578C371.894 81.2526 371.858 78.9967 371.715 76.4902C371.643 73.9121 371.536 71.2624 371.392 68.541C371.249 65.748 371.07 63.1341 370.855 60.6992C370.64 58.2643 370.39 56.1517 370.103 54.3613C369.888 52.4993 369.638 51.2103 369.351 50.4941C368.993 49.6348 368.564 48.7754 368.062 47.916C367.633 47.1283 367.096 46.3047 366.451 45.4453C365.806 44.5143 365.09 43.5475 364.303 42.5449ZM451.443 76.7051C453.448 76.7051 455.31 76.4902 457.029 76.0605C458.461 75.7025 459.822 75.1296 461.111 74.3418C462.472 73.4824 463.367 72.2292 463.797 70.582C465.229 70.8685 466.446 71.1191 467.449 71.334C468.452 71.4772 469.311 71.6204 470.027 71.7637C470.815 71.9785 471.495 72.1217 472.068 72.1934C472.641 72.3366 473.321 72.4798 474.109 72.623C474.825 72.7663 475.685 72.9453 476.687 73.1602C477.762 73.3034 479.015 73.5182 480.447 73.8047C479.373 73.6615 478.263 73.7689 477.117 74.127C476.043 74.485 475.004 74.8789 474.002 75.3086C472.856 75.8099 471.782 76.4186 470.779 77.1348C470.135 77.5645 469.383 78.209 468.523 79.0684C467.735 79.9277 466.59 80.7513 465.086 81.5391C463.582 82.3268 461.577 83.0072 459.07 83.5801C456.635 84.0814 453.484 84.2604 449.617 84.1172C444.962 83.974 441.059 83.1504 437.908 81.6465C434.757 80.071 432.215 78.1732 430.281 75.9531C428.347 73.6615 426.951 71.1908 426.092 68.541C425.232 65.8913 424.767 63.4206 424.695 61.1289C424.624 58.8372 425.304 56.4382 426.736 53.9316C428.168 51.4251 430.174 49.1335 432.752 47.0566C435.402 44.9798 438.588 43.2969 442.312 42.0078C446.036 40.6471 450.118 39.9668 454.558 39.9668C457.137 39.9668 459.5 40.2891 461.648 40.9336C463.868 41.5065 465.874 42.2943 467.664 43.2969C469.526 44.2995 471.137 45.4453 472.498 46.7344C473.859 47.9518 475.004 49.2051 475.935 50.4941C476.866 51.8548 477.654 53.2871 478.299 54.791C478.872 56.0801 479.337 57.5482 479.695 59.1953C480.053 60.8424 480.161 62.5254 480.017 64.2441C474.575 64.3874 470.17 64.4948 466.805 64.5664C463.51 64.638 460.932 64.6738 459.07 64.6738H454.236H450.584C449.295 64.6738 447.612 64.7096 445.535 64.7812C443.458 64.8529 440.916 64.9603 437.908 65.1035C438.266 67.9681 439.161 70.1882 440.594 71.7637C442.097 73.2676 443.673 74.4134 445.32 75.2012C447.182 76.0605 449.223 76.5618 451.443 76.7051ZM441.775 57.3691C444.067 57.5124 445.965 57.6198 447.469 57.6914C449.044 57.763 450.333 57.8346 451.336 57.9062C452.41 57.9779 453.269 58.0137 453.914 58.0137H456.599C458.39 58.0137 461.72 57.9062 466.59 57.6914C466.375 54.5404 465.694 52.1413 464.549 50.4941C463.474 48.847 462.329 47.6296 461.111 46.8418C459.679 45.9824 458.103 45.4811 456.385 45.3379C451.73 45.4095 448.256 46.3763 445.965 48.2383C443.745 50.1003 442.348 53.1439 441.775 57.3691Z" fill="#1A1919"/>
</svg>
